PathFileType   4   (X/Y/Z)
DataRate  CameraRate  NumFrames  NumMarkers  Units  OrigDataRate  OrigDataStartFrame  OrigNumFrames  
  120.0      120.0        10         37         mm      120.0          84        134
Frame#      Time                    midhip                           hip_r                           hip_l                          knee_r                          knee_l                         ankle_r                         ankle_l                         midasis                          asis_r                          asis_l                          psis_r                          psis_l                    epicondLat_r                    epicondLat_l                    epicondMed_r                    epicondMed_l                  malleolusLat_r                  malleolusLat_l                 malleolusMedv_r                 malleolusMedv_l                    sternalnotch                  xyphoidprocess                            neck                           toe_r                           toe_l                     thighwand_r                     thighwand_l                     upperleg1_r                     upperleg1_l                     upperleg2_r                     upperleg2_l                     shankwand_r                     shankwand_l                     lowerleg1_r                     lowerleg1_l                   subclavicle_r                   subclavicle_l            
              X1          Y1          Z1          X2          Y2          Z2          X3          Y3          Z3          X4          Y4          Z4          X5          Y5          Z5          X6          Y6          Z6          X7          Y7          Z7          X8          Y8          Z8          X9          Y9          Z9          X10          Y10          Z10          X11          Y11          Z11          X12          Y12          Z12          X13          Y13          Z13          X14          Y14          Z14          X15          Y15          Z15          X16          Y16          Z16          X17          Y17          Z17          X18          Y18          Z18          X19          Y19          Z19          X20          Y20          Z20          X21          Y21          Z21          X22          Y22          Z22          X23          Y23          Z23          X24          Y24          Z24          X25          Y25          Z25          X26          Y26          Z26          X27          Y27          Z27          X28          Y28          Z28          X29          Y29          Z29          X30          Y30          Z30          X31          Y31          Z31          X32          Y32          Z32          X33          Y33          Z33          X34          Y34          Z34          X35          Y35          Z35          X36          Y36          Z36          X37          Y37          Z37          

	84	0.84167	1952.589	770.560	-255.664	1947.066	767.495	-198.584	1958.111	773.625	-312.743	1969.566	417.720	-195.331	1909.464	423.709	-331.271	1992.402	65.045	-210.274	1668.875	167.266	-290.562	1987.201	843.014	-249.280	1991.922	843.212	-138.860	1982.479	842.815	-359.701	1812.791	872.076	-209.733	1810.096	870.906	-263.613	2002.808	422.299	-136.511	1909.396	410.621	-388.328	1974.304	420.352	-251.928	1943.112	406.188	-271.249	1989.546	63.301	-172.923	1655.711	174.899	-323.739	1990.839	61.805	-243.819	1674.346	169.070	-257.232	1971.350	1198.090	-246.581	1981.564	1096.624	-253.105	1862.104	1266.481	-237.590	2074.143	47.777	-210.568	1695.151	75.385	-299.912	2093.423	577.383	-171.386	2032.024	566.364	-404.203	2038.942	605.773	-127.741	2016.427	606.535	-335.631	2036.980	548.092	-134.026	2010.039	547.760	-330.333	2110.406	186.017	-188.500	1706.337	255.778	-422.221	2032.727	169.885	-200.737	1718.371	243.216	-344.922	1974.140	1196.190	-190.500	1974.217	1200.382	-296.481
	85	0.85000	1959.086	770.742	-255.522	1953.624	767.647	-198.438	1964.548	773.837	-312.605	1972.372	418.148	-195.546	1923.262	423.658	-332.492	1992.297	65.066	-210.850	1681.728	169.130	-291.139	1993.776	843.201	-249.085	1998.612	843.268	-138.480	1988.940	843.134	-359.689	1819.436	872.366	-209.790	1816.383	871.251	-263.673	2005.641	421.982	-136.709	1923.003	411.196	-389.587	1977.161	420.978	-252.814	1957.159	406.611	-272.748	1989.799	63.292	-173.476	1668.558	176.769	-324.312	1990.266	61.617	-244.302	1688.258	170.466	-258.191	1978.200	1198.554	-246.464	1988.449	1097.090	-252.973	1868.914	1266.919	-237.522	2074.111	47.580	-211.149	1709.338	78.031	-302.434	2097.740	576.200	-171.573	2042.683	568.964	-405.269	2043.750	605.291	-127.999	2026.095	608.277	-336.615	2041.154	547.643	-134.467	2021.059	550.110	-331.505	2111.503	185.018	-190.086	1719.487	257.280	-422.991	2033.494	168.890	-201.341	1732.695	244.457	-346.208	1980.976	1196.667	-190.530	1981.079	1200.834	-296.217
	86	0.85833	1965.488	770.959	-255.522	1960.095	767.806	-198.435	1970.881	774.112	-312.609	1979.695	416.621	-195.729	1936.239	423.111	-333.633	1992.143	65.084	-211.408	1695.007	170.451	-291.800	2000.257	843.406	-248.952	2005.222	843.312	-138.160	1995.291	843.500	-359.744	1826.044	872.638	-209.819	1822.752	871.582	-263.681	2008.456	421.679	-136.948	1936.642	411.857	-390.699	1983.916	419.445	-252.676	1971.043	408.333	-271.073	1990.065	63.278	-174.009	1681.843	178.068	-324.980	1990.486	60.968	-244.813	1701.814	171.541	-258.968	1984.950	1198.931	-246.554	1994.915	1097.445	-253.151	1876.028	1267.483	-237.426	2074.020	47.409	-211.725	1724.297	80.331	-304.930	2101.898	575.004	-171.895	2053.222	571.520	-406.281	2048.438	604.557	-128.393	2036.080	609.934	-337.704	2046.685	547.410	-134.748	2032.160	552.638	-331.939	2112.560	184.078	-191.869	1733.021	258.378	-423.833	2034.673	168.194	-202.779	1746.524	245.368	-347.063	1987.695	1196.983	-190.568	1987.859	1201.251	-296.354
	87	0.86667	1971.768	771.243	-255.592	1966.442	767.995	-198.505	1977.094	774.490	-312.680	1985.813	415.355	-195.955	1949.655	422.718	-334.720	1991.979	65.090	-211.936	1708.754	171.163	-292.575	2006.653	843.647	-248.854	2011.755	843.344	-137.886	2001.550	843.950	-359.822	1832.644	872.900	-209.782	1829.257	871.927	-263.607	2011.245	421.395	-137.238	1950.247	412.593	-391.660	1989.323	418.220	-252.721	1985.610	409.956	-269.702	1990.341	63.252	-174.516	1695.599	178.742	-325.768	1991.914	59.169	-245.243	1715.393	172.104	-259.709	1991.590	1199.250	-246.774	2001.218	1097.727	-253.312	1883.198	1267.976	-237.520	2073.883	47.259	-212.306	1739.977	82.223	-307.339	2105.867	573.772	-172.373	2063.637	574.026	-407.228	2053.112	603.855	-128.832	2046.093	612.202	-338.701	2051.815	546.686	-135.198	2043.378	554.850	-332.354	2113.547	183.215	-193.712	1746.894	259.039	-424.737	2036.052	167.305	-205.332	1760.325	245.937	-347.632	1994.389	1197.319	-190.478	1994.452	1201.539	-296.893
	88	0.87500	1978.048	771.550	-255.662	1972.788	768.163	-198.576	1983.307	774.938	-312.748	1983.126	417.287	-196.230	1962.410	423.346	-335.635	1991.830	65.078	-212.423	1722.995	171.235	-293.480	2012.975	843.934	-248.764	2018.219	843.366	-137.648	2007.730	844.502	-359.880	1839.253	873.152	-209.657	1835.772	872.328	-263.445	2013.991	421.134	-137.571	1963.751	413.390	-392.466	1987.025	420.004	-253.465	1999.035	411.523	-269.630	1990.614	63.212	-174.989	1709.848	178.761	-326.688	1993.356	57.171	-245.544	1729.309	172.589	-260.493	1998.178	1199.527	-247.077	2007.725	1097.991	-253.537	1889.961	1268.269	-237.781	2073.719	47.125	-212.898	1756.358	83.682	-309.640	2109.691	572.499	-172.996	2073.931	576.482	-408.099	2057.769	603.228	-129.559	2055.956	614.603	-339.371	2054.249	545.899	-135.922	2054.197	557.125	-332.856	2114.435	182.432	-195.491	1761.063	259.225	-425.687	2037.079	166.321	-207.945	1774.189	246.583	-348.391	2001.133	1197.642	-190.511	2000.901	1201.772	-297.482
	89	0.88333	1984.236	771.934	-255.721	1979.039	768.375	-198.640	1989.433	775.494	-312.802	1981.352	419.045	-196.636	1975.333	424.317	-336.320	1991.702	65.048	-212.863	1737.740	170.661	-294.520	2019.237	844.267	-248.665	2024.629	843.383	-137.437	2013.846	845.151	-359.893	1845.872	873.375	-209.430	1842.232	872.786	-263.187	2016.673	420.892	-137.930	1977.097	414.240	-393.118	1985.026	420.514	-251.717	2012.397	412.690	-270.725	1990.871	63.156	-175.420	1724.594	178.120	-327.743	1991.994	57.740	-246.011	1744.182	172.177	-261.579	2004.702	1199.723	-247.238	2014.078	1098.182	-253.868	1896.478	1268.719	-238.051	2073.550	47.003	-213.491	1773.431	84.706	-311.830	2113.366	571.166	-173.734	2084.104	578.904	-408.877	2062.263	602.470	-130.514	2065.524	616.936	-339.840	2056.893	546.029	-136.032	2064.814	559.551	-333.541	2115.219	181.717	-197.135	1775.495	258.907	-426.667	2037.403	165.762	-207.900	1788.799	246.515	-349.512	2007.896	1197.771	-190.943	2007.213	1202.019	-297.395
	90	0.89167	1990.386	772.369	-255.786	1985.257	768.608	-198.711	1995.515	776.130	-312.860	1982.919	419.860	-196.961	1987.725	425.089	-336.789	1991.587	65.006	-213.253	1752.991	169.441	-295.692	2025.457	844.641	-248.557	2031.000	843.402	-137.254	2019.913	845.881	-359.860	1852.478	873.574	-209.097	1848.552	873.274	-262.846	2019.274	420.662	-138.289	1990.238	415.142	-393.618	1985.966	420.852	-250.711	2025.013	414.133	-271.221	1991.102	63.092	-175.805	1739.841	176.819	-328.932	1987.924	60.850	-246.372	1759.347	170.767	-262.760	2011.330	1199.877	-247.528	2020.519	1098.340	-254.462	1903.135	1269.109	-238.190	2073.398	46.892	-214.063	1791.188	85.300	-313.914	2117.022	569.802	-174.503	2094.148	581.305	-409.543	2066.816	601.991	-131.108	2075.007	619.169	-340.522	2060.636	546.157	-136.239	2075.173	561.663	-334.163	2115.917	181.040	-198.625	1790.171	258.083	-427.669	2037.289	165.360	-205.185	1803.777	245.776	-350.293	2014.731	1197.786	-191.615	2013.658	1202.287	-297.324
	91	0.90000	1996.575	772.806	-255.848	1991.532	768.831	-198.780	2001.619	776.781	-312.915	1984.788	420.595	-197.315	1999.567	425.513	-337.110	1991.467	64.964	-213.591	1768.766	167.573	-296.996	2031.646	845.046	-248.454	2037.347	843.427	-137.111	2025.946	846.665	-359.797	1859.039	873.757	-208.669	1854.629	873.746	-262.448	2021.778	420.438	-138.615	2003.149	416.110	-393.986	1988.041	422.504	-253.467	2037.102	415.953	-270.399	1991.298	63.025	-176.141	1755.597	174.858	-330.249	1986.026	62.539	-246.631	1774.846	168.828	-264.003	2017.908	1199.907	-248.134	2026.902	1098.358	-255.154	1909.776	1269.361	-238.157	2073.280	46.799	-214.591	1809.616	85.473	-315.897	2120.722	568.421	-175.238	2104.054	583.697	-410.080	2071.255	601.402	-131.728	2084.502	621.003	-341.165	2064.238	545.243	-137.531	2085.381	563.746	-334.427	2116.563	180.365	-199.973	1805.079	256.775	-428.682	2037.699	165.625	-204.534	1818.846	244.700	-351.044	2021.425	1197.772	-192.180	2020.133	1202.348	-297.982
	92	0.90833	2002.787	773.253	-255.931	1997.839	769.069	-198.871	2007.734	777.438	-312.992	1987.455	420.427	-197.623	2012.658	426.184	-337.308	1991.326	64.931	-213.881	1785.085	165.059	-298.426	2037.815	845.468	-248.376	2043.675	843.460	-137.024	2031.954	847.476	-359.727	1865.503	873.951	-208.169	1860.439	874.169	-262.023	2024.180	420.214	-138.872	2015.823	417.159	-394.254	1991.376	422.810	-255.858	2050.617	416.783	-271.695	1991.448	62.964	-176.432	1771.870	172.246	-331.682	1987.594	61.986	-247.292	1791.164	166.197	-265.456	2024.253	1199.874	-248.718	2032.823	1098.285	-255.683	1916.357	1269.799	-238.186	2073.205	46.727	-215.054	1828.696	85.238	-317.785	2124.637	567.076	-175.851	2113.810	586.079	-410.483	2075.281	600.341	-132.556	2093.680	622.882	-341.577	2067.821	544.221	-138.728	2095.728	566.026	-335.152	2117.191	179.665	-201.189	1820.212	255.030	-429.691	2039.018	167.293	-207.276	1834.351	243.080	-352.100	2027.802	1197.747	-192.519	2026.452	1202.286	-298.816
	93	0.91667	2008.995	773.706	-256.088	2004.138	769.318	-199.035	2013.851	778.095	-313.142	1986.016	422.591	-197.957	2025.374	427.184	-337.371	1991.153	64.919	-214.129	1801.959	161.919	-299.962	2043.964	845.896	-248.334	2049.983	843.502	-137.004	2037.945	848.290	-359.664	1871.811	874.170	-207.624	1866.013	874.518	-261.609	2026.490	419.985	-139.036	2028.263	418.301	-394.472	1991.127	425.507	-258.962	2063.126	417.617	-273.597	1991.542	62.918	-176.685	1788.662	169.004	-333.207	1985.314	63.947	-247.303	1807.788	162.786	-266.941	2030.495	1199.892	-248.972	2038.539	1098.267	-256.035	1923.104	1270.267	-238.134	2073.174	46.679	-215.440	1848.400	84.613	-319.593	2128.658	565.754	-176.295	2123.405	588.447	-410.748	2079.159	599.365	-133.111	2102.453	625.020	-342.011	2069.909	543.303	-139.870	2105.568	568.037	-335.942	2117.826	178.932	-202.274	1835.573	252.899	-430.687	2039.925	166.678	-205.666	1849.916	240.883	-352.924	2034.097	1197.699	-192.798	2032.650	1202.336	-299.050
